<svg width="2494" height="2433" viewBox="0 0 2494 2433" fill="none" xmlns="http://www.w3.org/2000/svg">
<path d="M1247.05 0C558.428 0 0 558.228 0 1246.95C0 1797.97 357.33 2265.36 852.765 2430.21C915.057 2441.72 937.992 2403.17 937.992 2370.22C937.992 2340.47 936.79 2242.23 936.289 2138.07C589.374 2213.48 516.166 1990.95 516.166 1990.95C459.482 1846.84 377.66 1808.48 377.66 1808.48C264.492 1731.07 386.173 1732.67 386.173 1732.67C511.359 1741.48 577.357 1861.16 577.357 1861.16C688.622 2051.84 869.089 1996.66 940.195 1964.81C951.411 1884.2 983.659 1829.21 1019.41 1798.07C742.401 1766.52 451.269 1659.56 451.269 1181.75C451.269 1045.65 499.942 934.386 579.76 847.057C566.841 815.71 524.178 688.922 591.878 517.167C591.878 517.167 696.633 483.617 934.887 644.957C1034.33 617.316 1140.99 603.495 1247.05 602.995C1353.01 603.495 1459.77 617.316 1559.41 644.957C1797.47 483.617 1902.02 517.167 1902.02 517.167C1969.92 688.922 1927.16 815.81 1914.24 847.157C1994.16 934.486 2042.53 1045.75 2042.53 1181.85C2042.53 1660.76 1750.8 1766.32 1473.09 1797.17C1517.85 1835.82 1557.71 1911.74 1557.71 2028.11C1557.71 2194.96 1556.31 2329.26 1556.31 2370.32C1556.31 2403.47 1578.74 2442.42 1641.94 2430.1C2137.17 2265.06 2494 1797.77 2494 1246.95C2494 558.228 1935.67 0 1247.05 0Z" fill="black"/>
</svg>
